<?xml version="1.0" encoding="UTF-8" standalone="no"?>
<!-- Created with Inkscape (http://www.inkscape.org/) -->

<svg
   xmlns:dc="http://purl.org/dc/elements/1.1/"
   xmlns:cc="http://creativecommons.org/ns#"
   xmlns:rdf="http://www.w3.org/1999/02/22-rdf-syntax-ns#"
   xmlns:svg="http://www.w3.org/2000/svg"
   xmlns="http://www.w3.org/2000/svg"
   xmlns:sodipodi="http://sodipodi.sourceforge.net/DTD/sodipodi-0.dtd"
   xmlns:inkscape="http://www.inkscape.org/namespaces/inkscape"
   version="1.1"
   width="750"
   height="475"
   id="svg2"
   inkscape:version="0.48.2 r9819"
   sodipodi:docname="drawing.svg">
  <sodipodi:namedview
     pagecolor="#ffffff"
     bordercolor="#666666"
     borderopacity="1"
     objecttolerance="10"
     gridtolerance="10"
     guidetolerance="10"
     inkscape:pageopacity="0"
     inkscape:pageshadow="2"
     inkscape:window-width="1101"
     inkscape:window-height="669"
     id="namedview6"
     showgrid="false"
     inkscape:zoom="1.3382627"
     inkscape:cx="390.07092"
     inkscape:cy="173.04965"
     inkscape:window-x="303"
     inkscape:window-y="114"
     inkscape:window-maximized="0"
     inkscape:current-layer="svg2" />
  <defs
     id="defs4" />
  <metadata
     id="metadata7">
    <rdf:RDF>
      <cc:Work
         rdf:about="">
        <dc:format>image/svg+xml</dc:format>
        <dc:type
           rdf:resource="http://purl.org/dc/dcmitype/StillImage" />
        <dc:title />
      </cc:Work>
    </rdf:RDF>
  </metadata>
  <path
     d="m 191.83899,376.55107 c -12.08671,-12.08668 0.85681,-32.19829 35.87229,-55.73824 51.89748,-34.88925 54.64344,-50.12343 18.11794,-100.51554 -21.79047,-30.06304 -21.7183,-28.63003 -3.36491,-66.81394 8.95412,-18.6289 17.23297,-37.95588 18.39744,-42.94885 l 2.11722,-9.07813 c -54.76123,2.67437 -97.98801,41.03093 -99.74983,76.73616 0,33.64054 33.87143,32.84904 41.29825,-0.96504 1.52652,-6.95019 2.16313,-10.50169 2.16313,-10.50169 l 13.58161,0.75331 -1.86775,18.09676 c -5.84923,56.67358 -64.07626,75.48118 -81.23961,26.2408 -19.85018,-56.94868 50.38082,-117.417852 131.77015,-121.88431 21.00753,-1.152844 31.70905,1.405987 50.16855,10.81996 55.89177,28.50367 74.834,91.75497 30.77933,106.29432 -22.84358,6.38638 -34.23149,-2.63725 -43.05423,-11.50787 -9.3371,-8.9089 -19.5014,-38.45725 -19.5014,-38.45725 l 16.22818,3.88326 c 0,0 3.66772,7.43221 6.59511,9.86923 9.61774,7.6053 23.50155,4.60482 28.40087,-4.03123 10.2698,-19.18929 -8.47869,-47.29367 -39.22342,-58.79675 -11.00032,-4.11575 -21.14642,-4.8323 -21.14642,-4.8323 0,0 -6.35087,12.25962 -12.58985,28.43785 l -10.3089,26.73189 c 4.08341,13.72735 12.06889,26.72998 19.7047,36.94276 28.28953,37.46923 29.28835,46.52942 9.04546,82.0511 l -14.54283,25.51934 8.76584,2.04482 c 4.82121,1.12463 20.21202,8.14219 34.20178,15.59457 l 25.43594,13.54978 9.22599,-6.9691 c 6.0645,-4.58095 9.0229,-9.64731 8.6333,-14.78477 -3.46502,-45.69179 25.37756,-91.99468 57.30447,-91.99468 40.01014,0 38.52898,42.52258 -2.62404,75.33543 -10.47199,8.34971 -20.54094,18.95418 -20.54094,18.95418 0,0 2.33422,7.42981 6.10101,14.71398 10.57603,20.45176 35.35232,23.50281 54.60423,1.03851 l 9.4438,-11.01961 c -9.35474,-26.22478 12.63978,-69.08124 31.5462,-85.18103 14.3329,-12.21447 23.47727,-18.03898 23.47727,-18.03898 0,0 -5.80525,-9.79565 -16.72564,-21.59097 -20.27501,-21.89944 -50.70582,-39.69563 -83.44038,-48.79664 -15.3592,-4.27025 -22.09683,-7.05824 -22.09683,-7.05824 l 1.50662,-10.37336 12.37926,1.86411 c 94.95257,14.29827 172.00624,80.10498 178.03791,152.05097 6.80939,81.22216 -71.95414,129.83327 -110.88949,68.43857 l -9.18908,-14.48964 -28.90653,21.30362 c -38.14513,28.11231 -48.37446,26.75188 -66.40595,-8.83153 l -8.24935,-16.27936 -26.33286,22.382 c -31.9336,27.14241 -31.29734,27.10035 -41.20479,2.7236 -4.39437,-10.81211 -12.96481,-24.63341 -19.04543,-30.71403 l -11.05567,-11.05567 -20.41072,24.67533 c -24.33352,29.41775 -44.04405,43.35551 -51.197,36.20254 z m 345.58849,-28.3703 c 13.15618,-17.69878 10.8849,-65.04688 -4.87803,-101.68873 l -6.96572,-16.19232 c -22.00421,14.5718 -31.33482,44.5539 -33.8527,64.96717 -5.35104,47.54775 24.22655,81.79688 45.69645,52.91388 z M 407.0928,281.44206 c 14.07123,-15.26548 17.70812,-29.33208 9.66362,-37.37659 -6.61898,-6.61898 -17.99729,-4.22397 -25.50927,4.73667 -7.39513,8.82125 -10.59213,20.48406 -10.37834,30.88883 0.24692,12.01697 4.44217,20.13044 4.44217,20.13044 0,0 12.44089,-8.24563 21.78182,-18.37935 z"
     id="path3067"
     style="fill:#FEFEFE"
     inkscape:connector-curvature="0"
     sodipodi:nodetypes="sssssccsccssssccccccscsccscsscsssscsscccssccssscsscssscssssccssssscs" />
  <path
     sodipodi:type="arc"
     style="fill:#FEFEFE;fill-rule:evenodd;stroke:#FEFEFE;stroke-width:1px;stroke-linecap:butt;stroke-linejoin:miter;stroke-opacity:1"
     id="path2983"
     sodipodi:cx="609.68689"
     sodipodi:cy="357.58929"
     sodipodi:rx="23.340681"
     sodipodi:ry="23.340681"
     d="m 633.02757,357.58929 a 23.340681,23.340681 0 1 1 -46.68136,0 23.340681,23.340681 0 1 1 46.68136,0 z"
     transform="translate(2.551844e-6,-2.1276596)" />
</svg>
