<svg xmlns="http://www.w3.org/2000/svg" width="800px" height="800px" viewBox="0 0 1200 1200" fill="#FEFEFE">
<path id="path21920" d="M0,350.411h282.787L708.197,3.688v1192.623l-425.41-346.721H0V350.411z
	 M868.033,293.853c83.605,83.607,126.229,185.246,127.868,304.918c0,114.755-42.623,213.114-127.868,295.082l-86.066-88.523
	c59.018-59.018,88.525-128.688,88.525-209.018c0-81.967-29.509-153.277-88.525-213.934L868.033,293.853L868.033,293.853z
	 M1015.574,148.771C1138.524,271.722,1200,420.083,1200,593.853c0,173.771-61.476,322.951-184.426,447.541l-90.984-90.982
	c98.361-96.722,147.541-215.164,147.541-355.327c0-140.164-49.18-259.427-147.541-357.788L1015.574,148.771z"/>
</svg>