<svg xmlns="http://www.w3.org/2000/svg" width="800px" height="800px" viewBox="0 0 1200 1200" fill="#FEFEFE">
<path id="path25719" d="m 1137.4035,690.67453 c 1.9938,1.9926 2.99,4.33895 2.99,7.04368 0,2.70357 -0.9962,5.05224 -2.99,7.04484 l -66.1826,66.18363 c -1.9937,1.9926 -4.2705,2.9889 -6.8326,2.9889 -2.2767,0 -4.6961,-0.9963 -7.2582,-2.9889 l -94.36303,-94.36414 -94.36298,94.36414 c -1.99375,1.9926 -4.27283,2.9889 -6.83491,2.9889 -2.27675,0 -4.69617,-0.9963 -7.25824,-2.9889 l -66.18247,-66.18363 c -1.71077,-1.70844 -2.56209,-4.12786 -2.56209,-7.25941 0,-2.84623 0.85132,-5.12299 2.56209,-6.83142 l 94.36296,-94.36415 -93.93731,-94.36414 c -1.99375,-1.70843 -2.98774,-3.98519 -2.98774,-6.83142 0,-3.13156 0.99399,-5.55097 2.98774,-7.25941 l 65.7545,-66.18363 c 1.99376,-1.9926 4.41318,-2.9889 7.26056,-2.9889 2.84508,0 5.12416,0.9963 6.83259,2.9889 l 94.36298,94.36413 94.36305,-94.36413 c 1.9937,-1.9926 4.3425,-2.9889 7.0448,-2.9889 2.7047,0 5.0511,0.9963 7.0449,2.9889 L 1137.4,487.8531 c 1.9938,1.9926 2.9901,4.34126 2.9901,7.04484 0,2.70357 -0.9963,5.05108 -2.9901,7.04367 l -94.3607,94.36646 z M 0,346.72095 H 282.78737 L 708.19614,0 V 1192.623 L 282.78854,845.90216 H 0 Z" style="stroke-width:1.15984" />
</svg>
